PathFileType	4	(X/Y/Z)	RBDS021static.trc
DataRate	CameraRate	NumFrames	NumMarkers	Units	OrigDataRate	OrigDataStartFrame	OrigNumFrames
150.000000	150.000000	4	48	mm	150.000000	0	150
Frame#	Time	L.Ankle			L.Ankle.Medial			L.ASIS			L.GTR			L.Heel.Bottom			L.Heel.Lateral			L.Heel.Top			L.HF			L.Iliac.Crest			L.Knee			L.Knee.Medial			L.MT1			L.MT2			L.MT5			L.PSIS			L.Shank.Bottom.Lateral			L.Shank.Bottom.Medial			L.Shank.Top.Lateral			L.Shank.Top.Medial			L.Thigh.Bottom.Lateral			L.Thigh.Bottom.Medial			L.Thigh.Top.Lateral			L.Thigh.Top.Medial			L.TT			R.Ankle			R.Ankle.Medial			R.ASIS			R.GTR			R.Heel.Bottom			R.Heel.Lateral			R.Heel.Top			R.HF			R.Iliac.Crest			R.Knee			R.Knee.Medial			R.MT1			R.MT2			R.MT5			R.PSIS			R.Shank.Bottom.Lateral			R.Shank.Bottom.Medial			R.Shank.Top.Lateral			R.Shank.Top.Medial			R.Thigh.Bottom.Lateral			R.Thigh.Bottom.Medial			R.Thigh.Top.Lateral			R.Thigh.Top.Medial			R.TT			
		X1	Y1	Z1	X2	Y2	Z2	X3	Y3	Z3	X4	Y4	Z4	X5	Y5	Z5	X6	Y6	Z6	X7	Y7	Z7	X8	Y8	Z8	X9	Y9	Z9	X10	Y10	Z10	X11	Y11	Z11	X12	Y12	Z12	X13	Y13	Z13	X14	Y14	Z14	X15	Y15	Z15	X16	Y16	Z16	X17	Y17	Z17	X18	Y18	Z18	X19	Y19	Z19	X20	Y20	Z20	X21	Y21	Z21	X22	Y22	Z22	X23	Y23	Z23	X24	Y24	Z24	X25	Y25	Z25	X26	Y26	Z26	X27	Y27	Z27	X28	Y28	Z28	X29	Y29	Z29	X30	Y30	Z30	X31	Y31	Z31	X32	Y32	Z32	X33	Y33	Z33	X34	Y34	Z34	X35	Y35	Z35	X36	Y36	Z36	X37	Y37	Z37	X38	Y38	Z38	X39	Y39	Z39	X40	Y40	Z40	X41	Y41	Z41	X42	Y42	Z42	X43	Y43	Z43	X44	Y44	Z44	X45	Y45	Z45	X46	Y46	Z46	X47	Y47	Z47	X48	Y48	Z48	

1	0	713.313720703125	110.8921127319336	1037.753295898438	729.7980346679688	122.4552230834961	1118.88232421875	863.4462280273438	1002.828308105469	1112.962036132813	787.9603271484375	920.5523071289063	1038.527587890625	635.9609375	40.10975646972656	1086.022094726563	665.5128784179688	61.43500518798828	1041.3310546875	645.6734619140625	86.81256866455078	1085.980346679688	733.5797119140625	455.2737731933594	1020.022338867188	776.262939453125	1061.7041015625	1062.156616210938	753.5872802734375	533.13232421875	1027.892456054688	726.0205078125	504.080322265625	1155.387329101563	851.76953125	57.27544021606445	1126.751708984375	863.9441528320313	62.5388298034668	1082.456176757813	821.5133056640625	47.72823333740234	1012.870727539063	679.3153686523438	1023.134521484375	1189.7607421875	710.8426513671875	183.2363586425781	1028.754150390625	668.703857421875	186.7212219238281	1064.639526367188	704.6919555664063	262.4931640625	1015.005187988281	663.488037109375	266.2987060546875	1049.501586914063	761.5115356445313	657.637451171875	1021.686889648438	698.9749145507813	668.39453125	1054.940551757813	773.6227416992188	766.8716430664063	1014.574584960938	713.8560791015625	777.45166015625	1046.843994140625	788.7014770507813	437.9867858886719	1074.122436523438	707.1664428710938	103.2513198852539	1422.3447265625	731.7288208007813	124.4284973144531	1341.326171875	864.860107421875	1004.640075683594	1337.564331054688	792.701904296875	919.47119140625	1409.506958007813	635.0787353515625	40.55152893066406	1372.2568359375	662.7913208007813	59.5469856262207	1417.423706054688	643.6222534179688	85.07707214355469	1372.873046875	738.6428833007813	461.6607055664063	1431.95947265625	794.9208374023438	1059.776611328125	1384.613403320313	756.1473999023438	534.857177734375	1419.282104492188	748.2799072265625	507.3627624511719	1286.818481445313	845.0745849609375	58.0603141784668	1333.601196289063	860.2230224609375	68.20291900634766	1384.908081054688	823.0730590820313	50.50468444824219	1446.070556640625	678.710205078125	1014.447021484375	1266.714721679688	694.3395385742188	186.7074890136719	1426.462158203125	664.3812866210938	193.8651275634766	1385.469482421875	694.8114624023438	270.8273010253906	1439.286499023438	660.4656372070313	273.5495300292969	1398.204223632813	764.3775634765625	662.9125366210938	1425.94482421875	700.6344604492188	665.6187744140625	1388.328002929688	765.2793579101563	772.5011596679688	1425.484008789063	706.6140747070313	774.8552856445313	1387.398681640625	795.89208984375	435.3379516601563	1374.756713867188	
2	0.006666666666666667	713.3373413085938	110.8691558837891	1037.764282226563	729.8031616210938	122.4616088867188	1118.869262695313	863.4526977539063	1002.817443847656	1112.946411132813	787.98583984375	920.5540161132813	1038.518432617188	635.9616088867188	40.10703277587891	1086.014404296875	665.5120239257813	61.43633270263672	1041.330932617188	645.6753540039063	86.81587219238281	1085.990356445313	733.5877075195313	455.2744750976563	1020.016479492188	776.3049926757813	1061.707641601563	1062.1533203125	753.5925903320313	533.1307373046875	1027.881103515625	726.0260620117188	504.0890197753906	1155.385620117188	851.7672729492188	57.27419281005859	1126.747680664063	863.9481811523438	62.54027557373047	1082.4462890625	821.514404296875	47.73053359985352	1012.868713378906	679.3336791992188	1023.138122558594	1189.751586914063	710.8390502929688	183.2461090087891	1028.738525390625	668.6987915039063	186.7185668945313	1064.630859375	704.6918334960938	262.5058288574219	1014.999084472656	663.4883422851563	266.3065185546875	1049.508911132813	761.515380859375	657.6464233398438	1021.671264648438	698.9940795898438	668.389404296875	1054.914428710938	773.627197265625	766.8841552734375	1014.545776367188	713.8744506835938	777.4526977539063	1046.831665039063	788.7040405273438	437.98388671875	1074.135498046875	707.1599731445313	103.2522048950195	1422.351928710938	731.7218017578125	124.4285202026367	1341.31689453125	864.86474609375	1004.634948730469	1337.544067382813	792.6959838867188	919.4696655273438	1409.494262695313	635.0792846679688	40.55633163452148	1372.26904296875	662.7880859375	59.55189514160156	1417.430419921875	643.6282958984375	85.07334136962891	1372.86474609375	738.635986328125	461.6632080078125	1431.964599609375	794.91796875	1059.785400390625	1384.604125976563	756.1456298828125	534.8594970703125	1419.273071289063	748.2791748046875	507.3722839355469	1286.804443359375	845.063720703125	58.09716415405273	1333.582275390625	860.2203369140625	68.19850921630859	1384.906982421875	823.0781860351563	50.50665664672852	1446.071899414063	678.7203979492188	1014.450134277344	1266.680541992188	694.3403930664063	186.7061920166016	1426.458862304688	664.3884887695313	193.8616180419922	1385.46240234375	694.8136596679688	270.827392578125	1439.269165039063	660.4575805664063	273.558349609375	1398.19921875	764.3802490234375	662.9102172851563	1425.934326171875	700.6343383789063	665.6221313476563	1388.306274414063	765.2858276367188	772.499755859375	1425.472778320313	706.6240234375	774.8439331054688	1387.37109375	795.8829956054688	435.3347473144531	1374.757690429688	
3	0.01333333333333333	713.3275146484375	110.8942489624023	1037.75048828125	729.7976684570313	122.4578247070313	1118.877197265625	863.4700927734375	1002.825073242188	1112.931640625	788.0003662109375	920.5560913085938	1038.4990234375	635.9658203125	40.11487579345703	1086.023315429688	665.5086059570313	61.43231582641602	1041.3310546875	645.6751708984375	86.82101440429688	1085.983276367188	733.607421875	455.27587890625	1020.009582519531	776.3290405273438	1061.70751953125	1062.145874023438	753.6079711914063	533.13623046875	1027.870361328125	726.0263061523438	504.0911865234375	1155.371459960938	851.770263671875	57.26580810546875	1126.748657226563	863.945068359375	62.54379272460938	1082.451538085938	821.5208129882813	47.72267913818359	1012.872741699219	679.34228515625	1023.127380371094	1189.713623046875	710.8482666015625	183.2419128417969	1028.75048828125	668.70068359375	186.7359161376953	1064.622680664063	704.7096557617188	262.4957275390625	1014.997802734375	663.5028686523438	266.3080444335938	1049.5009765625	761.5260620117188	657.645751953125	1021.663635253906	698.9908447265625	668.384521484375	1054.898193359375	773.6488037109375	766.8845825195313	1014.546447753906	713.8947143554688	777.4507446289063	1046.821533203125	788.7057495117188	437.9936828613281	1074.135009765625	707.1622314453125	103.2477722167969	1422.32861328125	731.7282104492188	124.4352416992188	1341.323486328125	864.8848876953125	1004.629577636719	1337.521240234375	792.7054443359375	919.4627685546875	1409.477172851563	635.0834350585938	40.56341552734375	1372.266967773438	662.7880859375	59.54286956787109	1417.417724609375	643.6224365234375	85.08130645751953	1372.8603515625	738.64599609375	461.6579284667969	1431.935668945313	794.9236450195313	1059.786743164063	1384.591064453125	756.1473999023438	534.8504638671875	1419.260131835938	748.2754516601563	507.3652648925781	1286.794555664063	845.0752563476563	58.09312438964844	1333.588012695313	860.2281494140625	68.20702362060547	1384.90234375	823.0835571289063	50.51153182983398	1446.06982421875	678.7267456054688	1014.452392578125	1266.662109375	694.3488159179688	186.7128753662109	1426.449951171875	664.3905029296875	193.8677215576172	1385.46533203125	694.8112182617188	270.8238525390625	1439.268798828125	660.4622802734375	273.5579223632813	1398.1953125	764.3804931640625	662.9072265625	1425.907958984375	700.6383666992188	665.6177978515625	1388.301147460938	765.2825317382813	772.4992065429688	1425.45361328125	706.6246948242188	774.8449096679688	1387.350219726563	795.8897705078125	435.333984375	1374.755004882813	
4	0.02	713.3247680664063	110.8999328613281	1037.74755859375	729.797119140625	122.4576263427734	1118.887817382813	863.4766845703125	1002.807678222656	1112.92333984375	788.0238647460938	920.5567626953125	1038.493530273438	635.9645385742188	40.11521530151367	1086.018310546875	665.517578125	61.43353271484375	1041.33056640625	645.6774291992188	86.82177734375	1085.98388671875	733.64111328125	455.2737731933594	1020.010070800781	776.3671264648438	1061.693725585938	1062.140747070313	753.6240844726563	533.1381225585938	1027.863891601563	726.0516357421875	504.0978088378906	1155.376586914063	851.77392578125	57.26630783081055	1126.74755859375	863.952392578125	62.54316711425781	1082.458251953125	821.5127563476563	47.72687149047852	1012.871459960938	679.3666381835938	1023.126342773438	1189.6943359375	710.8484497070313	183.2493743896484	1028.743408203125	668.7036743164063	186.735107421875	1064.632934570313	704.7119750976563	262.5000610351563	1014.99853515625	663.5075073242188	266.3144836425781	1049.501953125	761.5376586914063	657.6453247070313	1021.652038574219	699.0108642578125	668.393310546875	1054.867797851563	773.6766357421875	766.8858032226563	1014.535278320313	713.911376953125	777.4583740234375	1046.806884765625	788.725830078125	437.9825744628906	1074.127807617188	707.1644897460938	103.2345123291016	1422.34033203125	731.7254638671875	124.4304351806641	1341.31884765625	864.8898315429688	1004.62548828125	1337.508422851563	792.7085571289063	919.4659423828125	1409.466186523438	635.077392578125	40.55885696411133	1372.266967773438	662.7885131835938	59.54748153686523	1417.421142578125	643.6239013671875	85.07022857666016	1372.85986328125	738.6456909179688	461.6582336425781	1431.930297851563	794.926513671875	1059.787963867188	1384.568725585938	756.1450805664063	534.853759765625	1419.25048828125	748.28662109375	507.3668212890625	1286.7890625	845.0722045898438	58.09603118896484	1333.592895507813	860.236572265625	68.20289611816406	1384.901611328125	823.0830078125	50.50575637817383	1446.066772460938	678.73681640625	1014.445373535156	1266.65234375	694.3424682617188	186.7091217041016	1426.449584960938	664.3858032226563	193.8647766113281	1385.458374023438	694.8162841796875	270.8200988769531	1439.263916015625	660.4627075195313	273.5566101074219	1398.196044921875	764.3761596679688	662.9056396484375	1425.906616210938	700.6383056640625	665.6193237304688	1388.279663085938	765.2930908203125	772.4973754882813	1425.442749023438	706.6262817382813	774.8487548828125	1387.332397460938	795.8974609375	435.3439331054688	1374.736328125	
